<?xml version="1.0" encoding="UTF-8"?>
<svg id="logo" data-name="logo" xmlns="http://www.w3.org/2000/svg" viewBox="0 0 1984.25 566.93">
  <defs>
    <style>
      .cls-1, .cls-2, .cls-3, .cls-4 {
        stroke-width: 0px;
      }

      .cls-1, .cls-4 {
        fill: #e4002c;
      }

      .cls-2 {
        fill: #1d1d1b;
      }

      .cls-2, .cls-3, .cls-4 {
        fill-rule: evenodd;
      }

      .cls-3 {
        fill: #6f6f6e;
      }
    </style>
  </defs>
  <path class="cls-1" d="M1718.7,486.81h111.1v14.99h-70.06v13.78h64.54v14.99h-64.54v19.84h70.06v14.99h-111.1v-78.59ZM1450.39,565.4h111.1v-14.99h-70.06v-19.84h64.54v-14.99h-64.54v-13.78h70.06v-14.99h-111.1v78.59ZM1223.34,525.61l-36.41-38.8h-47.55v78.59h38.83v-52.09l29.9,33.62h28.14l29.89-33.62v52.09h41.04v-78.59h-47.54l-36.3,38.8ZM1334.55,500.53h23.61v51.15h-23.61v13.72h88.48v-13.72h-23.61v-51.15h23.61v-13.72h-88.48v13.72ZM1904.71,506.02c4.49-2.21,9.21-3.77,14.18-4.67,4.96-.9,10.42-1.34,16.38-1.34,5,0,9.8.39,14.4,1.18,4.59.8,8.8,1.75,12.63,2.88,3.82,1.13,7.24,2.28,10.26,3.46,3.01,1.18,5.52,2.19,7.5,3.03h4.19v-18.73c-2.72-.67-6.28-1.46-10.7-2.38-4.41-.91-8.49-1.64-12.24-2.16-4.79-.64-9.79-1.13-15.01-1.48-5.22-.35-11.1-.53-17.65-.53-24.64,0-44.22,3.7-58.75,11.11-14.53,7.41-21.79,17.34-21.79,29.8s7.25,22.93,21.74,30.06c14.49,7.12,34.05,10.68,58.69,10.68,7.87,0,14.05-.19,18.53-.58,4.49-.38,9.31-.95,14.46-1.69,4.19-.59,8.27-1.32,12.24-2.19,3.97-.86,7.47-1.62,10.48-2.29v-18.48h-3.75c-2.06.88-4.48,1.89-7.28,3.01-2.79,1.13-6.03,2.24-9.71,3.33-3.38,1.05-7.54,2.01-12.46,2.87-4.93.87-10.12,1.3-15.56,1.3s-10.46-.44-15.72-1.32c-5.26-.88-10.02-2.31-14.29-4.28-4.41-2.04-7.98-4.72-10.7-8.05-2.72-3.32-4.08-7.43-4.08-12.32s1.3-8.67,3.91-12.09c2.61-3.41,5.98-6.12,10.1-8.13ZM1630.66,486.81h-41.26v78.59h109.66v-14.99h-68.4v-63.6Z"/>
  <path class="cls-3" d="M1984.16,423.88c0-16.61-24.51-22.88-72.58-26.29-30.76-2.12-45.9-3.23-45.9-8.67s11.54-7.84,33.88-7.84c24.51,0,48.79,2.4,75.46,6.83-1.2-4.43-2.16-8.58-2.16-12.64,0-1.66,0-3.69.24-5.72-27.16-2.68-51.43-3.97-71.86-3.97-57.19,0-87.48,9.87-87.48,25.46,0,7.57,8.89,14.3,23.07,18.27,14.18,3.87,32.68,5.17,55.76,7.1,24.75,2.03,38.45,2.86,38.45,9.13,0,5.54-11.54,7.75-36.29,7.75-23.07,0-51.43-2.58-79.55-7.84,2.16,5.81,2.88,12.46,3.37,20.21,25.23,2.78,53.35,4.17,83.63,4.17,53.59,0,81.95-9.43,81.95-25.94M1765.95,414.27v-46.33h-57.92v45.87c0,11.36-11.54,16.81-40.13,16.81s-40.38-5.44-40.38-16.81v-45.87h-60.8v47.44c0,24.37,29.56,34.44,98.77,34.44,73.06,0,100.45-10.72,100.45-35.55ZM1519.62,447.5v-18.36h-96.61v-61.2h-60.32v79.56h156.93ZM1258.87,392.22c0,9.52-12.74,11.83-38.69,11.83h-21.15v-22.45h22.59c24.99,0,37.25,1.94,37.25,10.62ZM1316.79,393.23c0-16.9-25.71-25.29-77.38-25.29h-100.69v79.56h60.32v-29.89h35.81c55.03,0,81.95-7.2,81.95-24.37Z"/>
  <path class="cls-2" d="M1979.12,312.25v-138.71h-131.78v53.12h69.44v47.59c-10.69,3.88-22.07,6.82-34.16,8.81-12.08,1.99-24.59,2.99-37.52,3-39.46-.55-70.49-11.34-93.1-32.37-22.61-21.03-34.13-48.97-34.58-83.82.22-35.3,10.52-62.98,30.89-83.02,20.38-20.04,49.53-30.25,87.45-30.61,19.9.05,40.3,3.07,61.18,9.05,20.88,5.98,42.67,14.61,65.38,25.88-1.48-11.43-2.54-21.3-3.17-29.62-.64-8.31-.95-14.88-.93-19.71v-14.76c-19.31-8.11-39.21-14.2-59.68-18.26-20.48-4.06-41.03-6.09-61.64-6.09-39.46.22-73.16,7.31-101.12,21.28-27.95,13.96-49.35,33.46-64.2,58.5-14.84,25.04-22.33,54.28-22.47,87.72.15,33.56,7.69,62.97,22.65,88.23,14.95,25.27,36.44,44.98,64.46,59.13,28.02,14.16,61.7,21.35,101.04,21.59,25.98-.02,50.83-2.29,74.57-6.83,23.74-4.53,46.17-11.24,67.29-20.1Z"/>
  <path class="cls-3" d="M1579.28,269.79c-11.32,14.48-23.54,25.35-36.64,32.59-13.11,7.24-26.82,10.86-41.15,10.86-15.02-.29-27.45-5-37.3-14.11-9.85-9.11-14.96-20.88-15.31-35.28-.02-13.93,5-26.46,15.03-37.6,10.04-11.14,25.2-20.89,45.48-29.25l69.9,72.79ZM1567.26,115.29c0,11.62-4.24,22.08-12.73,31.38-8.49,9.3-21.29,17.9-38.38,25.81-11.49-9.96-20.18-19.66-26.07-29.11-5.9-9.45-8.86-19.06-8.88-28.83.28-11.55,4.32-20.95,12.12-28.18,7.8-7.23,17.66-10.96,29.6-11.19,13.85.21,24.67,3.97,32.46,11.28,7.79,7.31,11.75,16.92,11.88,28.83ZM1666.85,329.95l-59.01-62.02c9.19-11.13,16.93-23.22,23.21-36.26,6.28-13.04,11.2-27.07,14.75-42.11h-23.3c-3.54,12.62-7.73,24.15-12.59,34.59-4.85,10.44-10.55,19.83-17.1,28.18l-62.39-65.36c39.09-18.57,58.63-42.71,58.63-72.42-.25-17.05-6.04-30.95-17.38-41.69-11.34-10.74-26.72-16.28-46.13-16.62-19.35.35-35.05,5.97-47.12,16.85-12.07,10.89-18.28,24.95-18.65,42.2,0,11.13,2.82,22.11,8.46,32.96,5.64,10.85,14.09,21.65,25.37,32.4-22.96,10.38-40.28,22.86-51.96,37.42-11.68,14.56-17.54,30.19-17.57,46.89.29,20.07,7.13,36.38,20.53,48.93,13.4,12.55,31.61,19.02,54.64,19.41,19.31,0,36.88-3.91,52.71-11.75,15.83-7.84,30.21-19.65,43.13-35.42l42.09,43.82h29.69Z"/>
  <path class="cls-2" d="M1345.2,110.65c.09,17.58-5.4,30.56-16.47,38.95-11.07,8.39-28.22,12.56-51.47,12.5h-70.18v-95.18h78.4c19.8-.2,34.7,3.05,44.7,9.74,10,6.69,15.01,18.02,15.03,33.99ZM1433.3,329.95c-5.86-6.32-12.43-16.46-19.74-30.44-7.3-13.97-16.03-31.5-26.18-52.57-6.08-12.26-14.17-22.7-24.27-31.31-10.09-8.62-21.54-14.9-34.34-18.86,25.05-3.38,44.57-12.84,58.56-28.37,13.99-15.53,21.1-35.64,21.33-60.33.03-33.13-10.67-57.42-32.11-72.86-21.43-15.44-53.79-23.07-97.06-22.9h-139.99v317.63h67.57v-119.53h38.08c10.54-.29,19.42.75,26.65,3.14,7.23,2.38,14.52,7.85,21.89,16.42,7.68,8.85,16.11,21.59,25.29,38.23,9.18,16.64,18.92,37.22,29.21,61.75h85.12Z"/>
  <rect class="cls-1" y="524.24" width="1063.12" height="40.51"/>
  <path class="cls-4" d="M739.85,0l135.78,188.3-135.77-79v-44.79l-247.13,344.57h247.13v-44.24l293.13,41.69,29.56,40.99H417.26L739.85,0ZM919.51,247.69l36,49.93-215.65-87.55v-51.11l179.65,88.73ZM985.22,338.81l25.72,35.67-271.07-62.55v-51.45l245.35,78.33Z"/>
</svg>